<?xml version="1.0" encoding="iso-8859-1"?>
<!-- Generator: Adobe Illustrator 20.1.0, SVG Export Plug-In . SVG Version: 6.00 Build 0)  -->
<svg xmlns="http://www.w3.org/2000/svg" xmlns:xlink="http://www.w3.org/1999/xlink" version="1.1" id="&#1057;&#1083;&#1086;&#1081;_1" x="0px" y="0px" viewBox="0 0 64 64" style="enable-background:new 0 0 64 64;" xml:space="preserve">
<linearGradient id="SVGID_1__52968" gradientUnits="userSpaceOnUse" x1="32" y1="11" x2="32" y2="53.5914" spreadMethod="reflect">
	<stop offset="0" style="stop-color:#1A6DFF"/>
	<stop offset="1" style="stop-color:#C822FF"/>
</linearGradient>
<path style="fill:url(#SVGID_1__52968);" d="M55,47V22c0-1.654-1.346-3-3-3H28v-5c0-1.654-1.346-3-3-3H9c-1.654,0-3,1.346-3,3v12  c0,1.654,1.346,3,3,3h4v18h-3v3c0,1.654,1.346,3,3,3h42c1.654,0,3-1.346,3-3v-3H55z M19,29h6c1.654,0,3-1.346,3-3v-1h21v18H19V29z   M8,26V14c0-0.552,0.448-1,1-1h16c0.552,0,1,0.448,1,1v12c0,0.552-0.448,1-1,1H9C8.448,27,8,26.552,8,26z M15,29h2v16h34V25  c0-1.103-0.897-2-2-2H28v-2h24c0.552,0,1,0.448,1,1v25H15V29z M56,50c0,0.552-0.448,1-1,1H13c-0.552,0-1-0.448-1-1v-1h1h42h1V50z"/>
<linearGradient id="SVGID_2__52968" gradientUnits="userSpaceOnUse" x1="17" y1="23" x2="17" y2="25.3348" spreadMethod="reflect">
	<stop offset="0" style="stop-color:#6DC7FF"/>
	<stop offset="1" style="stop-color:#E6ABFF"/>
</linearGradient>
<rect x="10" y="23" style="fill:url(#SVGID_2__52968);" width="14" height="2"/>
<linearGradient id="SVGID_3__52968" gradientUnits="userSpaceOnUse" x1="17" y1="18.9167" x2="17" y2="21.303" spreadMethod="reflect">
	<stop offset="0" style="stop-color:#6DC7FF"/>
	<stop offset="1" style="stop-color:#E6ABFF"/>
</linearGradient>
<rect x="10" y="19" style="fill:url(#SVGID_3__52968);" width="14" height="2"/>
<linearGradient id="SVGID_4__52968" gradientUnits="userSpaceOnUse" x1="17" y1="14.6667" x2="17" y2="17.197" spreadMethod="reflect">
	<stop offset="0" style="stop-color:#6DC7FF"/>
	<stop offset="1" style="stop-color:#E6ABFF"/>
</linearGradient>
<rect x="10" y="15" style="fill:url(#SVGID_4__52968);" width="14" height="2"/>
<linearGradient id="SVGID_5__52968" gradientUnits="userSpaceOnUse" x1="44" y1="27" x2="44" y2="33.0576" spreadMethod="reflect">
	<stop offset="0" style="stop-color:#6DC7FF"/>
	<stop offset="1" style="stop-color:#E6ABFF"/>
</linearGradient>
<path style="fill:url(#SVGID_5__52968);" d="M47,33v-5c0-0.552-0.448-1-1-1h-5L47,33z"/>
</svg>
