<svg xmlns="http://www.w3.org/2000/svg" xmlns:xlink="http://www.w3.org/1999/xlink" id="Слой_1" x="0" y="0" version="1.1" viewBox="0 0 64 64" style="enable-background:new 0 0 64 64" xml:space="preserve"><linearGradient id="SVGID_1__52968" x1="32" x2="32" y1="11" y2="53.591" gradientUnits="userSpaceOnUse" spreadMethod="reflect"><stop offset="0" style="stop-color:#1a6dff"/><stop offset="1" style="stop-color:#c822ff"/></linearGradient><path style="fill:url(#SVGID_1__52968)" d="M55,47V22c0-1.654-1.346-3-3-3H28v-5c0-1.654-1.346-3-3-3H9c-1.654,0-3,1.346-3,3v12 c0,1.654,1.346,3,3,3h4v18h-3v3c0,1.654,1.346,3,3,3h42c1.654,0,3-1.346,3-3v-3H55z M19,29h6c1.654,0,3-1.346,3-3v-1h21v18H19V29z M8,26V14c0-0.552,0.448-1,1-1h16c0.552,0,1,0.448,1,1v12c0,0.552-0.448,1-1,1H9C8.448,27,8,26.552,8,26z M15,29h2v16h34V25 c0-1.103-0.897-2-2-2H28v-2h24c0.552,0,1,0.448,1,1v25H15V29z M56,50c0,0.552-0.448,1-1,1H13c-0.552,0-1-0.448-1-1v-1h1h42h1V50z"/><linearGradient id="SVGID_2__52968" x1="17" x2="17" y1="23" y2="25.335" gradientUnits="userSpaceOnUse" spreadMethod="reflect"><stop offset="0" style="stop-color:#6dc7ff"/><stop offset="1" style="stop-color:#e6abff"/></linearGradient><rect x="10" y="23" style="fill:url(#SVGID_2__52968)" width="14" height="2"/><linearGradient id="SVGID_3__52968" x1="17" x2="17" y1="18.917" y2="21.303" gradientUnits="userSpaceOnUse" spreadMethod="reflect"><stop offset="0" style="stop-color:#6dc7ff"/><stop offset="1" style="stop-color:#e6abff"/></linearGradient><rect x="10" y="19" style="fill:url(#SVGID_3__52968)" width="14" height="2"/><linearGradient id="SVGID_4__52968" x1="17" x2="17" y1="14.667" y2="17.197" gradientUnits="userSpaceOnUse" spreadMethod="reflect"><stop offset="0" style="stop-color:#6dc7ff"/><stop offset="1" style="stop-color:#e6abff"/></linearGradient><rect x="10" y="15" style="fill:url(#SVGID_4__52968)" width="14" height="2"/><linearGradient id="SVGID_5__52968" x1="44" x2="44" y1="27" y2="33.058" gradientUnits="userSpaceOnUse" spreadMethod="reflect"><stop offset="0" style="stop-color:#6dc7ff"/><stop offset="1" style="stop-color:#e6abff"/></linearGradient><path style="fill:url(#SVGID_5__52968)" d="M47,33v-5c0-0.552-0.448-1-1-1h-5L47,33z"/></svg>